Coordinates
version=1
nRows=8
nColumns=40
inDegrees=yes

Units are S.I. units (second, meters, Newtons, ...)
If the header above contains a line with 'inDegrees', this indicates whether rotational values are in degrees (yes) or radians (no).

endheader
time	pelvis_tilt	pelvis_list	pelvis_rotation	pelvis_tx	pelvis_ty	pelvis_tz	hip_flexion_r	hip_adduction_r	hip_rotation_r	knee_angle_r	knee_angle_r_beta	ankle_angle_r	subtalar_angle_r	mtp_angle_r	hip_flexion_l	hip_adduction_l	hip_rotation_l	knee_angle_l	knee_angle_l_beta	ankle_angle_l	subtalar_angle_l	mtp_angle_l	lumbar_extension	lumbar_bending	lumbar_rotation	arm_flex_r	arm_add_r	arm_rot_r	elbow_flex_r	pro_sup_r	wrist_flex_r	wrist_dev_r	arm_flex_l	arm_add_l	arm_rot_l	elbow_flex_l	pro_sup_l	wrist_flex_l	wrist_dev_l
      9.85000000	     12.77407709	      2.24540176	   -172.84811892	      0.25516826	      0.76789430	     -0.92278929	     26.30667013	    -37.40919816	    -28.20858964	     22.41951284	      0.39129432	     -9.89215854	      0.00000000	      0.00000000	     38.27601100	    -36.33390976	    -17.07753830	     26.66990094	      0.46547758	     -9.65289632	      0.00000000	      0.00000000	    -24.97941953	     -0.00266570	     -2.42187708	     33.38122550	    -13.34646317	     60.45313261	     12.45449765	     85.03501560	      0.00000000	      0.00000000	     36.14939004	    -15.09071139	     75.84791070	     14.97115445	     68.04495351	      0.00000000	      0.00000000
      9.85500000	     12.48059206	      2.19075636	   -172.85737081	      0.25319545	      0.76926822	     -0.92292218	     25.57202724	    -37.23327079	    -28.41028806	     21.96183637	      0.38330635	     -9.93311221	      0.00000000	      0.00000000	     37.48726000	    -36.25563899	    -17.33451012	     26.25327854	      0.45820615	     -9.65231647	      0.00000000	      0.00000000	    -24.69493019	     -0.07821979	     -2.40051145	     32.91996330	    -13.35813174	     60.42617072	     12.46357377	     84.95485577	      0.00000000	      0.00000000	     35.73606754	    -15.11015172	     75.79034718	     14.99443624	     68.47346208	      0.00000000	      0.00000000
      9.86000000	     12.11298090	      2.18420661	   -172.80147251	      0.25108478	      0.77069382	     -0.92295423	     24.68631232	    -37.04205935	    -28.81882220	     21.51749225	      0.37555109	     -9.96437485	      0.00000000	      0.00000000	     36.69037245	    -36.19825568	    -17.50156327	     25.84602433	      0.45109822	     -9.69008287	      0.00000000	      0.00000000	    -24.48462000	     -0.09060765	     -2.40825344	     32.44764986	    -13.39789247	     60.24617496	     12.53764055	     85.00678233	      0.00000000	      0.00000000	     35.31644951	    -15.12860661	     75.64943690	     15.01350899	     68.79135848	      0.00000000	      0.00000000
      9.86500000	     11.94240262	      1.76897838	   -173.18952880	      0.24901252	      0.77183654	     -0.92364564	     24.56198680	    -37.08645629	    -28.10840538	     21.21510498	      0.37027343	     -9.89854362	      0.00000000	      0.00000000	     35.55717232	    -36.03677576	    -18.56336472	     25.44946356	      0.44417693	     -9.68267499	      0.00000000	      0.00000000	    -24.09345820	     -0.72205251	     -2.13507283	     32.00298156	    -13.56853036	     61.15194115	     12.78417478	     84.82354273	      0.00000000	      0.00000000	     34.98426087	    -15.15113363	     75.64994685	     14.92063056	     70.82398577	      0.00000000	      0.00000000
      9.87000000	     12.04501519	      2.32262985	   -172.71575205	      0.24751052	      0.77212847	     -0.92299955	     23.93363034	    -36.67865596	    -29.26166155	     21.04125343	      0.36723915	     -9.97057159	      0.00000000	      0.00000000	     36.14265028	    -36.13829353	    -17.38064575	     25.35892623	      0.44259676	     -9.73542215	      0.00000000	      0.00000000	    -23.26036251	     -0.01323357	     -2.27121284	     31.37455521	    -13.51031320	     60.21984289	     12.53894142	     84.01089089	      0.00000000	      0.00000000	     34.42956362	    -14.77857236	     75.13586745	     14.52307951	     70.16348346	      0.00000000	      0.00000000
      9.87500000	     11.10027740	      2.20178162	   -172.59035075	      0.24478095	      0.77466200	     -0.92291747	     22.07819139	    -36.40786316	    -29.89092769	     20.10555206	      0.35090808	    -10.06335833	      0.00000000	      0.00000000	     34.52196132	    -36.02873400	    -17.86395674	     24.75029278	      0.43197410	     -9.65622019	      0.00000000	      0.00000000	    -23.69464064	     -0.03837037	     -2.46101830	     31.03655078	    -13.49257727	     60.08506845	     12.63308356	     84.80010697	      0.00000000	      0.00000000	     34.04219896	    -15.13103979	     75.15465503	     14.99063468	     70.48729956	      0.00000000	      0.00000000
      9.88000000	     10.76600225	      1.82039290	   -172.93285841	      0.24246073	      0.77600663	     -0.92354629	     21.67132353	    -36.44830051	    -29.43446281	     19.78419177	      0.34529929	     -9.98675488	      0.00000000	      0.00000000	     33.20143842	    -35.86636827	    -18.87587432	     24.26090190	      0.42343262	     -9.68242027	      0.00000000	      0.00000000	    -23.46654601	     -0.60255021	     -2.21181860	     30.53359408	    -13.63871211	     60.38429386	     12.92080124	     84.96202747	      0.00000000	      0.00000000	     33.70043833	    -15.20528655	     75.21823696	     15.00950068	     71.64986103	      0.00000000	      0.00000000
      9.88500000	     10.44933166	      2.06270396	   -172.60311620	      0.24040736	      0.77714419	     -0.92310988	     20.52269093	    -36.07025995	    -30.27432109	     19.18214150	      0.33479153	    -10.06890790	      0.00000000	      0.00000000	     32.86611523	    -35.86155373	    -18.36888942	     23.95442104	      0.41808352	     -9.62628777	      0.00000000	      0.00000000	    -23.13110448	     -0.23152412	     -2.41318226	     30.06737311	    -13.54329505	     59.88439972	     12.74432770	     85.01110563	      0.00000000	      0.00000000	     33.23533391	    -15.17330954	     75.01234977	     15.02661904	     71.65507420	      0.00000000	      0.00000000
